HIERARCHY
ROOT ui
{
	 OFFSET 0 0 0
	 CHANNELS 3 XPosition YPosition Z Position
	 EndSite
	 {
	 OFFSET 0 -1 0
	 }
}
ROOT li
{
	 OFFSET 0 0 0
	 CHANNELS 3 XPosition YPosition Z Position
	 EndSite
	 {
	 OFFSET 0 -1 0
	 }
}
ROOT ul
{
	 OFFSET 0 0 0
	 CHANNELS 3 XPosition YPosition Z Position
	 EndSite
	 {
	 OFFSET 0 -1 0
	 }
}
ROOT ll
{
	 OFFSET 0 0 0
	 CHANNELS 3 XPosition YPosition Z Position
	 EndSite
	 {
	 OFFSET 0 -1 0
	 }
}
ROOT tt
{
	 OFFSET 0 0 0
	 CHANNELS 3 XPosition YPosition Z Position
	 EndSite
	 {
	 OFFSET 0 -1 0
	 }
}
ROOT tb
{
	 OFFSET 0 0 0
	 CHANNELS 3 XPosition YPosition Z Position
	 EndSite
	 {
	 OFFSET 0 -1 0
	 }
}
ROOT td
{
	 OFFSET 0 0 0
	 CHANNELS 3 XPosition YPosition Z Position
	 EndSite
	 {
	 OFFSET 0 -1 0
	 }
}
ROOT v
{
	 OFFSET 0 0 0
	 CHANNELS 3 XPosition YPosition Z Position
	 EndSite
	 {
	 OFFSET 0 -1 0
	 }
}
ROOT bn
{
	 OFFSET 0 0 0
	 CHANNELS 3 XPosition YPosition Z Position
	 EndSite
	 {
	 OFFSET 0 -1 0
	 }
}
MOTION
Frames: 32
Frame Time: 0.002
0.007869654178619385	-9.051499962806702E-4	0		0.46334967041015623	-2.34550390625	0		-0.9547074584960937	0.07431001281738281	0		-0.7790274047851562	-2.48517919921875	0		1.3879886474609375	-0.6464533081054687	0		3.053302734375	0.07604999542236328	0		4.5563388671875	0.15197003173828125	0		5.62584619140625	0.07239910888671874	0		-0.10906721496582031	5.95211328125	0		
-0.008791238784790038	0.009091329574584962	0		0.4354910888671875	-2.343267822265625	0		-1.0295738525390625	0.07559663391113282	0		-0.7799380493164062	-2.48552490234375	0		1.4040047607421875	-0.6511946411132813	0		3.05241845703125	0.07566507720947266	0		4.5664306640625	0.15032754516601562	0		5.62078662109375	0.06407778167724609	0		-0.10989106750488281	5.95176123046875	0		
0.006178699970245362	-0.0016154069900512695	0		0.4616086120605469	-2.346223876953125	0		-1.02349072265625	0.07009838104248046	0		-0.8187401733398437	-2.484035400390625	0		1.386283935546875	-0.6471930541992188	0		3.051613525390625	0.07527465057373046	0		4.55878271484375	0.15707293701171876	0		5.63408837890625	0.06834909057617188	0		-0.11063094329833985	5.95140576171875	0		
-0.01338635540008545	0.005448256015777588	0		0.4188231201171875	-2.347656005859375	0		-1.0119742431640626	0.08048948669433593	0		-0.8046072998046875	-2.489708984375	0		1.3855523681640625	-0.6475629272460938	0		3.045046142578125	0.08201583862304687	0		4.5690576171875	0.15642318725585938	0		5.62343359375	0.07114912414550781	0		-0.0970458755493164	5.9617421875	0		
0.040005115509033205	0.0059109869003295895	0		0.463276123046875	-2.3430009765625	0		-1.0126128540039063	0.08015656280517579	0		-0.8499796752929687	-2.4760546875	0		1.3879923095703126	-0.6439924926757813	0		3.050251708984375	0.0745023651123047	0		4.5574228515625	0.15626441955566406	0		5.62855078125	0.05960494613647461	0		-0.11185152435302734	5.95070947265625	0		
-0.011514089584350585	0.00770332384109497	0		0.40877194213867185	-2.3391484375	0		-1.0213182373046874	0.07301483917236327	0		-0.781736328125	-2.4848984375	0		1.3843427734375	-0.64827587890625	0		3.069804443359375	0.07868780517578125	0		4.56371484375	0.14872064208984376	0		5.6222421875	0.07033016967773438	0		-0.11232959747314453	5.9503779296875	0		
0.03182905769348145	-0.0015843009948730469	0		0.45910479736328125	-2.347596435546875	0		-1.032761962890625	0.07395327758789062	0		-0.8541544189453125	-2.480615966796875	0		1.38386474609375	-0.6486116333007812	0		3.027390380859375	0.08125741577148438	0		4.55640380859375	0.15549627685546874	0		5.6217734375	0.06993904876708984	0		-0.11369899749755859	5.95108349609375	0		
-0.02259146308898926	-0.0026911189556121824	0		0.4058076171875	-2.341732666015625	0		-1.0262626953125	0.06851289367675781	0		-0.7857484130859375	-2.4894287109375	0		1.380401123046875	-0.651863525390625	0		3.048841796875	0.07343202972412109	0		4.55601611328125	0.15513520812988282	0		5.62714013671875	0.05843388366699219	0		-0.11205416870117188	5.94874072265625	0		
0.012305636405944825	0.006250553131103516	0		0.4452962951660156	-2.349903076171875	0		-1.0143369140625	0.0789764404296875	0		-0.84306103515625	-2.48743994140625	0		1.3890084228515625	-0.6553623046875	0		3.061590576171875	0.0758210678100586	0		4.54883740234375	0.16094580078125	0		5.63100146484375	0.06598638916015626	0		-0.09709493255615234	5.95712646484375	0		
-0.0031598339080810547	-0.003677288055419922	0		0.44812716674804687	-2.34523876953125	0		-1.0145838012695312	0.07872776794433593	0		-0.7663607788085938	-2.48939501953125	0		1.3911275634765625	-0.6386912231445312	0		3.05239013671875	0.07771710205078125	0		4.5664541015625	0.1542265167236328	0		5.62497705078125	0.075780029296875	0		-0.09919703674316406	5.9599091796875	0		
0.011870927810668945	0.005747038841247559	0		0.45988446044921877	-2.346751220703125	0		-1.0206575317382813	0.083631591796875	0		-0.8543815307617187	-2.47967919921875	0		1.3826905517578125	-0.6497706909179688	0		3.016102294921875	0.07323456573486328	0		4.5504501953125	0.16227810668945314	0		5.62639208984375	0.05742554092407227	0		-0.11354625701904297	5.94898193359375	0		
-0.020409448623657227	-7.616459727287293E-4	0		0.43072824096679685	-2.346333740234375	0		-1.0340301513671875	0.07271615600585937	0		-0.7847188720703125	-2.488436767578125	0		1.3794832763671876	-0.6529405517578125	0		3.047962158203125	0.07226744842529297	0		4.56198388671875	0.14673809814453126	0		5.6205048828125	0.06826417541503907	0		-0.11360300445556641	5.94876416015625	0		
0.0024318859577178954	-0.004467635154724121	0		0.440432373046875	-2.354756103515625	0		-1.023140625	0.07128848266601563	0		-0.8458882446289062	-2.49027099609375	0		1.3793885498046874	-0.6531549682617187	0		3.04787646484375	0.0720320053100586	0		4.55505615234375	0.15363706970214844	0		5.626173828125	0.05686602401733398	0		-0.09937416076660156	5.95925537109375	0		
-0.016453718185424803	0.0027777419090270995	0		0.44240182495117186	-2.352980712890625	0		-1.0190975341796875	0.07503699493408203	0		-0.8100397338867188	-2.494232666015625	0		1.3882662353515625	-0.656545166015625	0		3.041988525390625	0.07895158386230469	0		4.57014208984375	0.1590725402832031	0		5.6303056640625	0.06453185272216796	0		-0.09836887359619141	5.95806005859375	0		
0.011597475051879884	0.005004714965820312	0		0.40866201782226563	-2.339385498046875	0		-1.01503955078125	0.07780864715576172	0		-0.8439588012695313	-2.48862060546875	0		1.3854725341796874	-0.646648681640625	0		3.0526455078125	0.06352368927001953	0		4.555005859375	0.15320118713378905	0		5.6203671875	0.06753461456298829	0		-0.1135243148803711	5.94824560546875	0		
0.011622779846191407	0.004877100944519043	0		0.457447998046875	-2.349603759765625	0		-1.0231668701171874	0.07087240600585938	0		-0.7849549560546875	-2.489048583984375	0		1.3824022216796874	-0.6507247314453125	0		3.067956298828125	0.07602426147460938	0		4.55090087890625	0.14711082458496094	0		5.62039306640625	0.06734150695800781	0		-0.11342961120605469	5.94811962890625	0		
0.005523695945739746	-0.00209253191947937	0		0.4305272521972656	-2.347114013671875	0		-1.0271990966796876	0.06686937713623047	0		-0.8208528442382812	-2.48534521484375	0		1.3793837890625	-0.6537776489257813	0		3.02606689453125	0.07881745147705078	0		4.55713330078125	0.15481919860839843	0		5.62620263671875	0.05604238891601562	0		-0.1133069839477539	5.9480166015625	0		
0.0025362279415130614	-0.005107973098754883	0		0.4305798645019531	-2.34720166015625	0		-1.0271197509765626	0.06679790496826171	0		-0.8238899536132812	-2.489351318359375	0		1.379455078125	-0.6538756713867188	0		3.0479853515625	0.07121392822265625	0		4.55999072265625	0.1446218719482422	0		5.63045849609375	0.06380657958984375	0		-0.11218529510498047	5.9469130859375	0		
-0.023362586975097657	-0.004591859817504883	0		0.4253841857910156	-2.359154052734375	0		-1.0897418212890626	0.08014481353759766	0		-0.8329971923828124	-2.497202392578125	0		1.394339111328125	-0.66328369140625	0		3.061144287109375	0.07382971954345703	0		4.5593984375	0.15853028869628907	0		5.63055419921875	0.06368489074707032	0		-0.09585357666015625	5.954494140625	0		
0.01602123260498047	0.007495756149291992	0		0.4726311950683594	-2.352247802734375	0		-1.0146775512695312	0.07744558715820313	0		-0.8484244384765625	-2.47488525390625	0		1.4026572265625	-0.6535198364257813	0		3.046453369140625	0.08308892059326171	0		4.55950439453125	0.1584429626464844	0		5.6306591796875	0.06358684158325195	0		-0.0976224365234375	5.9574970703125	0		
-0.015996217727661133	0.002188101053237915	0		0.4069339599609375	-2.341806640625	0		-1.0296094970703125	0.07576818084716797	0		-0.7846447143554688	-2.489320068359375	0		1.3828087158203124	-0.6511095581054688	0		3.032298583984375	0.07135374450683593	0		4.56232373046875	0.14531549072265626	0		5.6208369140625	0.06673474884033204	0		-0.11267748260498046	5.94781298828125	0		
0.012170680046081543	0.004562559127807617	0		0.4578522644042969	-2.349945556640625	0		-1.0226149291992188	0.07062099456787109	0		-0.8204834594726562	-2.485513671875	0		1.379843994140625	-0.6540553588867187	0		3.04840234375	0.07096984100341797	0		4.55076904296875	0.16053814697265625	0		5.62094482421875	0.06668477630615234	0		-0.11251911163330078	5.9478125	0		
-0.022941869735717775	-0.004638424873352051	0		0.4309866027832031	-2.3473310546875	0		-1.02660107421875	0.06673609161376953	0		-0.786521240234375	-2.491246337890625	0		1.3799404296875	-0.6540491943359374	0		3.04850439453125	0.07096296691894531	0		4.5556923828125	0.15241011047363281	0		5.62680029296875	0.05552682876586914	0		-0.09619682312011718	5.95547216796875	0		
0.009276246070861817	6.808639764785767E-4	0		0.450678955078125	-2.364741943359375	0		-1.0142660522460938	0.07750674438476562	0		-0.8454537963867188	-2.490892333984375	0		1.3830943603515624	-0.6510927124023438	0		3.04859716796875	0.07097547149658204	0		4.55991845703125	0.15832154846191407	0		5.6310703125	0.06343033599853516	0		-0.0827989501953125	5.9672138671875	0		
-0.012548108100891114	0.005218666076660156	0		0.4352400817871094	-2.342344970703125	0		-1.0141845092773438	0.07756134796142578	0		-0.7724949951171876	-2.49646484375	0		1.3831715087890626	-0.651052490234375	0		3.0486787109375	0.07100566101074218	0		4.55104736328125	0.16054273986816406	0		5.62122119140625	0.06666714477539062	0		-0.09594629669189453	5.9555556640625	0		
0.006359562873840332	-0.0021416699886322023	0		0.4581346435546875	-2.349796630859375	0		-1.022269775390625	0.07080809783935547	0		-0.8551513061523438	-2.482552001953125	0		1.383236572265625	-0.6509981689453125	0		3.05699072265625	0.08187029266357422	0		4.55524951171875	0.16649005126953126	0		5.62128955078125	0.06669959259033204	0		-0.11104408264160157	5.9469541015625	0		
-0.012424295425415038	0.0053522329330444336	0		0.4301865234375	-2.349102294921875	0		-1.0331890869140625	0.07212967681884766	0		-0.7862802124023438	-2.49101318359375	0		1.380222900390625	-0.6538646850585937	0		3.042960693359375	0.07824188995361328	0		4.56283544921875	0.14536866760253905	0		5.62134521484375	0.06674664306640625	0		-0.11193978118896485	5.948048828125	0		
0.003391284942626953	-0.0049222040176391604	0		0.43022006225585935	-2.349024169921875	0		-1.026259521484375	0.06705863189697266	0		-0.8591621704101563	-2.486302978515625	0		1.380262939453125	-0.6537901000976563	0		3.016853759765625	0.07189164733886719	0		4.5560361328125	0.15258537292480467	0		5.6271416015625	0.0556738395690918	0		-0.10991949462890625	5.9460849609375	0		
-0.012350687980651856	0.005516901016235352	0		0.4509035339355469	-2.364405517578125	0		-1.0139859008789063	0.0778763427734375	0		-0.8093079223632812	-2.494328857421875	0		1.3950872802734375	-0.6630422973632812	0		3.06194091796875	0.07396196746826172	0		4.56020068359375	0.15856437683105468	0		5.63135009765625	0.06364881515502929	0		-0.094671875	5.9548330078125	0		
0.02832590866088867	-0.010307342529296874	0		0.4301243591308594	-2.35485400390625	0		-1.0139642944335938	0.07796575927734375	0		-0.830310546875	-2.494771240234375	0		1.3943970947265625	-0.6499404907226562	0		3.0353037109375	0.08963864898681641	0		4.56022265625	0.15863832092285157	0		5.62559619140625	0.07385115051269531	0		-0.10983098602294922	5.9462568359375	0		
0.01267740535736084	0.005131585121154785	0		0.4582587890625	-2.349395263671875	0		-1.0221054077148437	0.0712340545654297	0		-0.7841586303710938	-2.488711669921875	0		1.38032275390625	-0.6535445556640626	0		3.048911865234375	0.07140965270996094	0		4.56227978515625	0.16066860961914062	0		5.62720703125	0.05588398742675781	0		-0.10980458068847657	5.9463427734375	0		
-0.019467756271362303	-0.0010701169967651367	0		0.4411280517578125	-2.354932861328125	0		-1.0261904296875	0.06740869903564453	0		-0.822128173828125	-2.486780029296875	0		1.3803245849609376	-0.65346435546875	0		3.0329189453125	0.07184387969970703	0		4.55610595703125	0.15287904357910156	0		5.62145703125	0.06708782196044921	0		-0.10979106903076172	5.94642578125	0		
